/* XPM */
static char *_cb2653d9f6f4560efed7c2032341705[] = {
/* columns rows colors chars-per-pixel */
"46 33 28 1 ",
"  c None",
". c black",
"X c #28200C",
"o c #382C14",
"O c #202020",
"+ c #2C2C2C",
"@ c gray22",
"# c #403018",
"$ c #483818",
"% c #543C1C",
"& c #5C4020",
"* c #6C4824",
"= c #744C28",
"- c #484848",
"; c gray33",
": c #646464",
"> c gray44",
", c #7C7C7C",
"< c #80502C",
"1 c #885830",
"2 c #905C34",
"3 c #9C6038",
"4 c #A0643C",
"5 c #A86840",
"6 c #B47044",
"7 c #BC7848",
"8 c gray55",
"9 c #989898",
/* pixels */
"      >>>>>>>>>,,,,,,8888                     ",
"    ,>;;;;;;;;;;;:::::>>>8,                   ",
"   ,8;@OOOO+++++++@@----;>;>                  ",
"   ,,89988,,,,,>>>>::::;;-@@                  ",
"  33,,88,,>>>::::;;;---@@@@$$                 ",
"  142331<<<====***&&&$$$$$$&$                 ",
" 31446737664255432=*<==%=*$$&$                ",
" 14167457662155432=*<<=*&=*$&$                ",
" 14167376662255432<&<<<=%=*$&-                ",
";:,8>7376652554321<&<<<=%----@                ",
";>,,8898,,,,>>>>>:::::;;;;@@@@$               ",
";,,,,,8>>>>::::;;;;;;----@@@@@$               ",
"1=;:>,,>>>>::::;;;;;;-----@@@&$               ",
"141644&321<$===****X&$$$$%&&$&$               ",
"141677476662543321<&<<<=*%&&$&$               ",
"141677476662543321<&<<<=*%&&$&$               ",
"141677476661543321<&<<<=*%&&$&$               ",
"141677476661543321<&<<<=*%&&$&$               ",
"141677476661543321<&<<<=*%&&$&$               ",
"141677476661543321<&<<<=*%&&$&$               ",
",4167737666<543321<&<<<=*%&&$--               ",
">888,737666<543321<&<<<=*%----@               ",
":,,,898,,,,,>>>>>:::::;;;;-@@@.               ",
";:>,,8,>>>>::::;;;;;;-----@@@@#               ",
" =;:::>>>>>::::;;;;;;-----###%&               ",
" 11<<<<<<**o**&&&&&X&&&&##&$&$&               ",
" 1415737553=322221<&<<=*$&&$&$                ",
"  144615553=122221*&<<=*$&&$&$                ",
"  >41441553=<2221<&&<<=&$&$&$::::::::::::::   ",
"  >89841333<=1111<&*<=*$&$$$@@@@@@@@@@@@--;:: ",
"   ,,,8888,,,>>:::;;;---@@+OOOOOOOOOOO++@--;;:",
"    ,>,,>>>::::;;;;---@@@++++++++++++++@@--;;:",
"      ;;;;;-----@@@@+++++@@@@@@@@@@@@@@---;;: "
};
